<?xml version="1.0" encoding="UTF-8" standalone="no"?>
<svg
   width="64"
   height="64"
   version="1"
   id="svg28"
   sodipodi:docname="syncthingtray.svg"
   inkscape:version="1.1.1 (1:1.1+202109281949+c3084ef5ed)"
   xmlns:inkscape="http://www.inkscape.org/namespaces/inkscape"
   xmlns:sodipodi="http://sodipodi.sourceforge.net/DTD/sodipodi-0.dtd"
   xmlns="http://www.w3.org/2000/svg"
   xmlns:svg="http://www.w3.org/2000/svg">
  <defs
     id="defs32" />
  <sodipodi:namedview
     id="namedview30"
     pagecolor="#ffffff"
     bordercolor="#666666"
     borderopacity="1.0"
     inkscape:pageshadow="2"
     inkscape:pageopacity="0.0"
     inkscape:pagecheckerboard="0"
     showgrid="false"
     inkscape:zoom="12.859375"
     inkscape:cx="32.077764"
     inkscape:cy="25.778858"
     inkscape:window-width="1567"
     inkscape:window-height="738"
     inkscape:window-x="353"
     inkscape:window-y="258"
     inkscape:window-maximized="0"
     inkscape:current-layer="svg28" />
  <g
     id="g702"
     style="fill:#ffffff"
     transform="matrix(1.3396668,0,0,1.4794775,-10.890313,-15.225617)">
    <path
       style="fill:#ffffff"
       d="m 32,12 c -11.046,0 -20,8.955 -20,20 0,11.046 8.954,20 20,20 11.045,0 20,-8.954 20,-20 -0.009,-2.33 -0.426,-4.641 -1.231,-6.827 l 0.042,-0.032 -0.104,-0.148 C 47.787,17.187 40.333,12.01 32,12 Z m 0,2 c 6.723,0.003 12.884,3.753 15.975,9.723 L 35.496,32.64 14.204,34.574 C 14.074,33.722 14.006,32.862 14,32 14,22.059 22.059,14 32,14 Z m 17.077,12.379 c 0.604,1.813 0.916,3.71 0.923,5.621 -0.005,4.74 -1.879,9.286 -5.215,12.652 l -6.867,-10.3 z m -13.781,9.089 7.347,11.02 C 39.56,48.762 35.831,49.992 32,50 24.12,49.991 17.162,44.858 14.828,37.332 Z"
       id="path8" />
    <circle
       style="fill:#ffffff"
       cx="14"
       cy="36"
       r="4"
       id="circle12" />
    <circle
       style="fill:#ffffff"
       cx="44"
       cy="46"
       r="4"
       id="circle16" />
    <circle
       style="fill:#ffffff"
       cx="50"
       cy="24"
       r="4"
       id="circle20" />
    <circle
       style="fill:#ffffff"
       cx="36"
       cy="34"
       r="4"
       id="circle24" />
  </g>
</svg>
